:SAMPLES-PER-SECOND 30
:FULLY-SPECIFIED
:DEGREES
581
root  -6.97099 37.8352 1.64092 -113.655 85.3625 -111.293
RightUpLeg  -18.7332 -9.37824 8.58045
RightLeg  29.8261 -1.36221 -1.10182
RightFoot  -8.46553 0.0979513 -6.14707
RightToes  -2.32831e-009 0 -3.6325e-017
Spine  5.17888 -0.338212 12.8408
Spine1  5.95847 0.566893 3.09905
HEad  -23.07 -3.56351 -3.62582
LeftShoulder1  -0.579054 4.94725 -33.9555
LeftArm  19.0821 0.187186 -46.6739
LeftForeArm  27.3101 -16.2018 -8.21041
LeftHand  -0.199804 9.6687 -3.71029
RightShoulder  -1.0301 -6.29845 30.3042
RightArm  12.057 -5.34492 42.2158
RightForeArm  17.5571 7.8548 6.24548
RightHand  -0.0884316 6.85712 -1.19907
LeftUpLeg  -1.44266 -0.551465 7.16403
LeftLeg  58.7922 -3.37915 -5.49216
LeftFoot  11.1963 1.93282 -9.95459
LeftToes  8.91272e-011 -1.70619e-011 7.36378e-012
582
root  -5.69988 38.0691 1.83543 -115.98 85.7433 -113.294
RightUpLeg  -15.5763 -9.5446 8.06184
RightLeg  28.875 -1.236 -0.996704
RightFoot  -10.2223 -0.0132261 -5.70272
RightToes  -2.32831e-009 0 -3.6325e-017
Spine  5.44866 -0.00529223 13.2734
Spine1  6.03648 1.27213 2.00941
HEad  -23.043 -4.01929 -2.56238
LeftShoulder1  -0.610786 5.03325 -33.7712
LeftArm  11.1965 2.00358 -45.3997
LeftForeArm  34.0185 -13.0871 -9.5289
LeftHand  -0.287123 10.2656 -5.22132
RightShoulder  -1.0676 -6.37449 30.6377
RightArm  13.52 -3.38255 41.8977
RightForeArm  16.7246 9.82524 6.43086
RightHand  -0.0635978 7.22532 -0.943861
LeftUpLeg  -5.96246 -1.55879 6.838
LeftLeg  63.1391 -2.42778 -4.61632
LeftFoot  7.59647 1.30731 -8.12914
LeftToes  8.91272e-011 -1.70619e-011 7.36378e-012
583
root  -4.4248 38.3002 2.00845 -118.338 86.3931 -115.357
RightUpLeg  -12.2843 -9.65574 7.17867
RightLeg  27.611 -0.876287 -0.659524
RightFoot  -11.7263 -0.0972876 -5.35504
RightToes  -2.32831e-009 0 -3.6325e-017
Spine  5.22487 0.332006 13.3473
Spine1  6.55265 1.8343 1.19239
HEad  -22.8426 -4.25839 -2.56567
LeftShoulder1  -0.641302 5.10633 -33.8531
LeftArm  6.09717 4.01935 -43.5878
LeftForeArm  35.8578 -11.0376 -9.93977
LeftHand  -0.195729 9.75999 -3.61074
RightShoulder  -0.989929 -6.21164 30.0008
RightArm  15.5368 -1.62405 42.5897
RightForeArm  15.4234 12.6751 6.1372
RightHand  -0.0500566 7.25008 -0.821314
LeftUpLeg  -10.0208 -2.72114 6.05331
LeftLeg  64.397 -1.9259 -3.76434
LeftFoot  6.27729 1.00675 -6.73678
LeftToes  8.91272e-011 -1.70619e-011 7.36378e-012
584
root  -3.14248 38.5196 2.14666 -108.947 87.4025 -106.038
RightUpLeg  -9.20595 -9.38732 6.07685
RightLeg  25.9634 -0.429129 0.00829052
RightFoot  -12.9418 -0.161018 -5.24406
RightToes  -2.32831e-009 0 -3.6325e-017
Spine  5.08003 0.933078 14.2015
Spine1  6.27025 2.88467 -0.933921
HEad  -21.9856 -4.55853 -2.99067
LeftShoulder1  -0.615602 5.04917 -33.6756
LeftArm  3.82713 6.30588 -41.54
LeftForeArm  36.1872 -10.0377 -9.98469
LeftHand  -0.223851 10.3911 -3.72535
RightShoulder  -1.0194 -6.29819 29.9335
RightArm  18.2863 -0.199262 42.6987
RightForeArm  11.8587 16.8615 5.1692
RightHand  -0.0504258 7.50208 -0.802759
LeftUpLeg  -13.7232 -3.3413 5.05652
LeftLeg  62.8565 -1.97048 -3.57153
LeftFoot  4.49439 0.707966 -5.28002
LeftToes  8.91272e-011 -1.70619e-011 7.36378e-012
585
root  -1.85803 38.6922 2.28287 -81.5314 88.2726 -78.674
RightUpLeg  -6.08505 -9.28874 4.82188
RightLeg  24.2674 0.466831 0.886689
RightFoot  -14.0838 -0.224774 -5.41007
RightToes  -2.32831e-009 0 -3.6325e-017
Spine  4.89385 1.6088 14.6966
Spine1  6.12217 3.84402 -2.7482
HEad  -21.0116 -4.79056 -3.51473
LeftShoulder1  -0.614561 5.05252 -33.5219
LeftArm  3.28906 8.6432 -39.6803
LeftForeArm  35.5967 -9.88855 -9.90922
LeftHand  -0.199728 11.0001 -2.75357
RightShoulder  -1.04069 -6.38486 29.5737
RightArm  19.4281 1.36899 42.9527
RightForeArm  8.58765 21.4138 4.62045
RightHand  -0.149565 8.59468 -1.63588
LeftUpLeg  -16.616 -3.96189 3.98797
LeftLeg  58.658 -2.52411 -3.94899
LeftFoot  2.44552 0.475554 -4.0618
LeftToes  8.91272e-011 -1.70619e-011 7.36378e-012
586
root  -0.584868 38.8104 2.43379 -37.6465 88.4556 -34.6912
RightUpLeg  -2.76743 -9.0132 3.63098
RightLeg  22.3123 1.26593 1.47154
RightFoot  -15.1611 -0.284692 -5.46742
RightToes  -2.32831e-009 0 -3.6325e-017
Spine  5.02838 2.21361 14.755
Spine1  5.78129 4.621 -4.24927
HEad  -21.0586 -4.7183 -3.93513
LeftShoulder1  -0.606469 5.04038 -33.314
LeftArm  3.17928 10.7679 -38.0185
LeftForeArm  35.4233 -10.0545 -9.75135
LeftHand  -0.202647 10.7553 -2.97038
RightShoulder  -0.96086 -6.18848 29.2311
RightArm  16.137 2.4175 42.5438
RightForeArm  10.4641 27.2574 5.25632
RightHand  -0.0624262 9.23999 -0.888449
LeftUpLeg  -18.456 -4.32365 3.00353
LeftLeg  51.9069 -3.08275 -3.77582
LeftFoot  0.745156 0.355154 -3.40209
LeftToes  8.91272e-011 -1.70619e-011 7.36378e-012
587
root  0.679012 38.8961 2.58164 -7.17615 87.9223 -4.20715
RightUpLeg  0.58771 -8.66393 2.67975
RightLeg  19.9184 1.82798 1.67829
RightFoot  -16.0665 -0.327701 -5.30872
RightToes  -2.32831e-009 0 -3.6325e-017
Spine  4.88177 2.6226 14.415
Spine1  5.82064 5.0242 -5.33502
HEad  -20.799 -4.20005 -4.8155
LeftShoulder1  -0.620112 5.08188 -33.1331
LeftArm  3.28279 13.0233 -36.696
LeftForeArm  34.5582 -10.6773 -9.4153
LeftHand  -0.211389 10.7344 -3.19089
RightShoulder  -0.994646 -6.28424 29.2213
RightArm  13.4639 4.51898 42.2249
RightForeArm  12.1227 32.575 6.51688
RightHand  -0.0618106 9.76092 -0.877711
LeftUpLeg  -19.4263 -4.57012 2.21236
LeftLeg  42.7977 -3.50917 -3.11378
LeftFoot  -0.0999852 0.310072 -3.15146
LeftToes  8.91272e-011 -1.70619e-011 7.36378e-012
588
root  1.9478 38.9418 2.72532 7.86517 87.1557 10.586
RightUpLeg  3.71667 -8.72995 1.62399
RightLeg  17.4281 2.88576 1.96622
RightFoot  -16.9438 -0.36707 -5.15407
RightToes  -2.32831e-009 0 -3.6325e-017
Spine  4.34639 3.05347 13.8797
Spine1  6.06196 5.39269 -6.36619
HEad  -20.5578 -3.18051 -5.26296
LeftShoulder1  -0.5847 5.00732 -32.738
LeftArm  2.09606 15.2006 -35.9363
LeftForeArm  34.7253 -10.7696 -9.02194
LeftHand  -0.231132 10.0896 -4.13342
RightShoulder  -0.977674 -6.23709 29.2084
RightArm  9.97825 6.03533 42.0212
RightForeArm  13.2813 38.5308 8.1051
RightHand  -0.103249 10.7414 -1.15856
LeftUpLeg  -19.583 -4.39896 1.37184
LeftLeg  31.5451 -3.84572 -2.19838
LeftFoot  0.497948 0.397517 -3.84241
LeftToes  8.91272e-011 -1.70619e-011 7.36378e-012
589
root  3.20179 38.9176 2.88322 16.3633 86.2812 18.5454
RightUpLeg  6.37323 -8.69731 0.711133
RightLeg  15.1628 4.00263 1.98985
RightFoot  -17.8412 -0.396341 -4.8674
RightToes  -2.32831e-009 0 -3.6325e-017
Spine  3.70477 3.49184 12.768
Spine1  6.25765 5.62575 -6.69253
HEad  -21.0229 -2.60001 -5.35901
LeftShoulder1  -0.613084 5.07213 -32.9372
LeftArm  2.34225 16.6909 -34.8544
LeftForeArm  33.8204 -10.64 -9.09545
LeftHand  -0.228917 10.3709 -3.83309
RightShoulder  -0.934806 -6.13436 28.9659
RightArm  7.13341 7.51902 42.1428
RightForeArm  14.4625 44.2736 9.93176
RightHand  -0.152901 10.6871 -1.51811
LeftUpLeg  -19.4055 -3.25937 0.296461
LeftLeg  19.8107 -4.61118 -1.48064
LeftFoot  1.13793 0.578297 -5.35696
LeftToes  8.91272e-011 -1.70619e-011 7.36378e-012
590
root  4.46961 38.8431 3.01205 22.3091 85.7747 24.4939
RightUpLeg  9.59233 -8.7366 -0.231495
RightLeg  13.1045 4.69312 1.81712
RightFoot  -18.7789 -0.410206 -4.33619
RightToes  -2.32831e-009 0 -3.6325e-017
Spine  3.57989 3.5748 12.1193
Spine1  6.79172 5.87245 -7.80868
HEad  -21.7681 -1.65348 -4.87637
LeftShoulder1  -0.593789 5.03924 -32.5246
LeftArm  1.82196 17.488 -34.438
LeftForeArm  33.7487 -10.0078 -9.24266
LeftHand  -0.281332 10.8424 -4.50059
RightShoulder  -0.969047 -6.21784 29.1437
RightArm  4.76878 9.22707 42.2867
RightForeArm  15.1121 49.5993 12.0751
RightHand  -0.151786 10.7026 -1.50537
LeftUpLeg  -18.8058 -1.52016 -1.4314
LeftLeg  10.4609 -5.03704 -0.872455
LeftFoot  0.744741 0.53726 -5.13119
LeftToes  8.91272e-011 -1.70619e-011 7.36378e-012
591
root  5.75671 38.6727 3.09565 25.0961 85.1059 27.2009
RightUpLeg  11.802 -9.10941 -1.37838
RightLeg  12.9723 5.82154 1.99142
RightFoot  -19.8432 -0.467112 -4.49091
RightToes  -2.32831e-009 0 -3.6325e-017
Spine  3.66713 3.79257 11.5261
Spine1  6.99909 6.21972 -8.43594
HEad  -22.3591 -0.89749 -4.73864
LeftShoulder1  -0.615645 5.09059 -32.6374
LeftArm  0.50932 16.88 -33.8446
LeftForeArm  35.4109 -8.13461 -9.62436
LeftHand  -0.408106 11.5733 -6.17689
RightShoulder  -0.896403 -6.03951 28.7698
RightArm  2.25639 10.0715 42.6556
RightForeArm  16.0805 54.734 14.6567
RightHand  -0.259662 10.7808 -2.28892
LeftUpLeg  -18.4702 0.587198 -3.0692
LeftLeg  4.55409 -3.38673 -1.07605
LeftFoot  0.249369 0.635174 -6.18548
LeftToes  8.91272e-011 -1.70619e-011 7.36378e-012
592
root  7.09478 38.4299 3.1566 31.1041 85.1203 33.404
RightUpLeg  14.0789 -9.58348 -2.47399
RightLeg  13.5978 6.41843 2.05084
RightFoot  -21.2222 -0.423996 -3.24279
RightToes  -2.32831e-009 0 -3.6325e-017
Spine  3.26665 3.70409 10.6411
Spine1  8.1297 6.22261 -8.60629
HEad  -23.2516 -0.431275 -4.14505
LeftShoulder1  -0.645832 5.14941 -33.0785
LeftArm  -1.69496 14.7738 -33.4405
LeftForeArm  38.4394 -5.47929 -9.534
LeftHand  -0.55843 12.1227 -8.13208
RightShoulder  -0.863999 -5.95012 28.7217
RightArm  -0.160377 11.227 43.2273
RightForeArm  17.8862 58.9666 17.3324
RightHand  -0.389848 9.87925 -3.35319
LeftUpLeg  -18.7982 -0.159527 -4.55334
LeftLeg  4.53338 -0.576723 -1.34853
LeftFoot  2.31076 0.337118 -3.29512
LeftToes  8.91272e-011 -1.70619e-011 7.36378e-012
